<?xml version="1.0" standalone="no"?>
<!DOCTYPE svg PUBLIC "-//W3C//DTD SVG 20010904//EN"
 "http://www.w3.org/TR/2001/REC-SVG-20010904/DTD/svg10.dtd">
<svg version="1.0" xmlns="http://www.w3.org/2000/svg"
 width="256.000000pt" height="256.000000pt" viewBox="0 0 256.000000 256.000000"
 preserveAspectRatio="xMidYMid meet">
<metadata>
Created by potrace 1.14, written by Peter Selinger 2001-2017
</metadata>
<g transform="translate(0.000000,256.000000) scale(0.100000,-0.100000)"
fill="#000000" stroke="none">
<path d="M0 1280 l0 -1280 1280 0 1280 0 0 1280 0 1280 -1280 0 -1280 0 0
-1280z m1313 500 l768 -324 -3 -144 -3 -145 -815 -348 c-448 -192 -816 -349
-817 -349 -2 0 -3 69 -3 153 l0 152 641 265 c352 146 642 267 644 270 1 3
-287 124 -641 269 l-644 265 0 153 0 153 53 -23 c28 -13 397 -169 820 -347z"/>
</g>
</svg>
